<svg width="24" height="24" viewBox="0 0 24 24" fill="none" xmlns="http://www.w3.org/2000/svg">
<path fill-rule="evenodd" clip-rule="evenodd" d="M4.07669 6.53081C4.23293 6.01864 4.70919 5.64606 5.27248 5.64606H19.2725C19.8358 5.64606 20.312 6.01864 20.4683 6.53081L12.2725 11.9947L4.07669 6.53081ZM2.52251 6.88232C2.52237 6.89032 2.52236 6.89832 2.52248 6.90631V16.8961C2.52248 18.4148 3.7537 19.6461 5.27248 19.6461H19.2725C20.7913 19.6461 22.0225 18.4148 22.0225 16.8961V6.90629M20.5225 8.29744V16.8961C20.5225 17.5864 19.9628 18.1461 19.2725 18.1461H5.27248C4.58212 18.1461 4.02248 17.5864 4.02248 16.8961V8.29744L11.8565 13.5201C12.1084 13.688 12.4366 13.688 12.6885 13.5201L20.5225 8.29744ZM22.0224 6.88235C22.0151 5.36987 20.7867 4.14606 19.2725 4.14606H5.27248C3.75828 4.14606 2.52991 5.36986 2.52251 6.88232" fill="#121212"/>
</svg>
