<svg width="26" height="26" viewBox="0 0 26 26" fill="none" xmlns="http://www.w3.org/2000/svg">
<path fill-rule="evenodd" clip-rule="evenodd" d="M5.31717 11.0634C5.31717 7.95197 7.83951 5.42963 10.951 5.42963C14.0625 5.42963 16.5848 7.95197 16.5848 11.0634C16.5848 14.1749 14.0625 16.6973 10.951 16.6973C7.83951 16.6973 5.31717 14.1749 5.31717 11.0634ZM10.951 3.92963C7.01109 3.92963 3.81717 7.12354 3.81717 11.0634C3.81717 15.0033 7.01109 18.1973 10.951 18.1973C12.6508 18.1973 14.2117 17.6028 15.4372 16.6104L20.4524 21.6255C20.7453 21.9184 21.2201 21.9184 21.513 21.6255C21.8059 21.3326 21.8059 20.8577 21.513 20.5648L16.4979 15.5497C17.4903 14.3242 18.0848 12.7632 18.0848 11.0634C18.0848 7.12354 14.8909 3.92963 10.951 3.92963Z" fill="#121212"/>
</svg>
