<svg xmlns="http://www.w3.org/2000/svg" viewBox="0 0 125 125"><title>Artboard 25 copy 4</title><g id="Layer_138" data-name="Layer 138"><path id="neck-2" data-name="neck" d="M76.11,80.37s-.67-.29-.67-.88V72.82l-26,1.29s.29,7.91-.3,8.59c0,0-3.1,2.27-2.21,4.15,1.86,3.92,7.21,6.28,11.27,6.93,5,.8,12.63,0,17-2.81C78.07,89.15,80,82.06,76.11,80.37Z" fill="#fce7d4" stroke="#020202" stroke-miterlimit="10" stroke-width="0.75"/><path id="face-2" data-name="face" d="M80.06,55.91s-.53,9.19-.72,9.94a13.06,13.06,0,0,1-1.48,3.56,67.26,67.26,0,0,1-5.5,7.52c-1,1-3.11,4.12-4.28,4.46a28.31,28.31,0,0,1-5.86.94c-1.25-.07-5.76-.67-6.75-1.27s-4.39-4.64-7.19-8.37S44,65.92,43.81,65a42.77,42.77,0,0,1-.26-4.33l-.48.12s-.07.95-.9,1.06C41,62,40.26,60.48,40,59.56c-.52-1.53-.3-3.22-.84-4.75s-3.07-6.88-1.07-8.24c1.75-1.19,3.31.49,3.88,2.09a13.31,13.31,0,0,1,.44,1.63l.34-.09s-.05-3,0-5.06c.09-3.88-1.1-8.22.35-12C47.86,20.79,52.39,20.32,63.5,20c9.9-.33,15.46,7.72,16.21,11.4a36.06,36.06,0,0,1,.88,9c-.15,2.73-.52,9.53-.52,9.53l.32.06a30.48,30.48,0,0,1,1.32-3.32,1.72,1.72,0,0,1,3.18,1.29c-.29,1.07-.82,4.14-1,5.38a15.44,15.44,0,0,0,0,2.72c0,.83-.36,3.7-1.58,3.67C81.53,59.63,79.68,59.68,80.06,55.91Z" fill="#fce7d4" stroke="#020202" stroke-miterlimit="10" stroke-width="0.75"/><path id="Sweater-4" data-name="Sweater" d="M2,125.48s.29-1.13,1-4.53S8.21,106,10.59,103s6-4.53,8.49-5.74,27.08-14.1,27.08-14.1a29.56,29.56,0,0,0,16.06,5c9.28,0,17-5.58,17-5.58,0-.71,19.57,11.74,25.34,14.35a27.43,27.43,0,0,1,12.6,11.82c2.38,4.53,5,16.43,5,16.43" fill="#286308" stroke="#020202" stroke-miterlimit="10" stroke-width="0.75"/><g opacity="0.72"><polygon points="51.5 125.25 45.82 125.25 45.36 84.02 45.74 83.84 49.29 98.95 51.47 96.5 51.5 125.25" fill="#fff"/></g><path id="Collar-2" data-name="Collar" d="M46.16,83.18a6.53,6.53,0,0,0,.67-2,7.08,7.08,0,0,1,.7-2.5c.39-.43,1.64-.5,1.64-.5s-1,1.49-.46,2a24.37,24.37,0,0,0,3.9,3c1.58.93,8.4,4.45,9.13,4.79s-.09.51-.52.54-3.47.36-4.5,1.47-7.29,8.17-7.29,8.17S45.64,83.7,46.16,83.18Z" fill="#286308" stroke="#020202" stroke-miterlimit="10" stroke-width="0.75"/><path id="collar-3" data-name="collar" d="M75.84,77.87s.76-.34,1,.32.39,2,.45,2.32A22.2,22.2,0,0,0,80.1,83l-3,14.39s-6.6-4.84-9.12-6.17-5.92-2.8-5.77-3,13-6.82,13.62-9.62a.7.7,0,0,0,0-.38Z" fill="#286308" stroke="#020202" stroke-miterlimit="10" stroke-width="0.75"/><line x1="58.68" y1="88.77" x2="58.68" y2="125.25" fill="#fff" stroke="#020202" stroke-miterlimit="10" stroke-width="0.75"/><line x1="66.91" y1="90.3" x2="66.91" y2="125.25" fill="#fff" stroke="#020202" stroke-miterlimit="10" stroke-width="0.75"/><g id="button"><circle cx="62.79" cy="102.97" r="1.59" fill="#fff"/><path d="M62.79,101.76A1.21,1.21,0,1,1,61.58,103a1.22,1.22,0,0,1,1.21-1.21m0-.75a2,2,0,1,0,2,2,2,2,0,0,0-2-2Z"/></g><g id="button-2" data-name="button"><circle cx="62.79" cy="118.94" r="1.59" fill="#fff"/><path d="M62.79,117.72a1.22,1.22,0,1,1,0,2.43,1.22,1.22,0,0,1,0-2.43m0-.75a2,2,0,1,0,2,2,2,2,0,0,0-2-2Z"/></g><path id="Eye" d="M56.51,46.24c0,1.37-.56,2.48-1.26,2.48S54,47.61,54,46.24s0-2.47,1.26-2.47C56.11,43.77,56.51,44.88,56.51,46.24Z" fill="#fff" stroke="#020202" stroke-miterlimit="10" stroke-width="0.75"/><path id="Eye-2" data-name="Eye" d="M72.74,45.8c0,1.47-.56,2.66-1.26,2.66s-1.26-1.19-1.26-2.66,0-2.67,1.26-2.67C72.34,43.13,72.74,44.32,72.74,45.8Z" fill="#fff" stroke="#020202" stroke-miterlimit="10" stroke-width="0.75"/><path d="M64.29,49.64s2.07,8.13,2.16,8.85,1.15,3.37.82,3.78-.33,1.45-1.08,1.61a15.22,15.22,0,0,1-2.83-.09,4,4,0,0,1-1.42-.5s-1.13.32-1.49.12a1.68,1.68,0,0,1-.73-1.28,5,5,0,0,1,.9-1.39" fill="none" stroke="#020202" stroke-miterlimit="10" stroke-width="0.75"/><path d="M80.1,25a3.87,3.87,0,0,0-.48,0c.31.24.52-.39.4-.76-1.61-4.94-6-8.67-10.92-10.35-5.25-1.8-12.83-2.29-17.63.85A24.9,24.9,0,0,0,41.7,27.09c-.59,1.66-1,3.38-1.74,5A7.8,7.8,0,0,1,36.53,36a4.23,4.23,0,0,1-4.87-.7A6,6,0,0,0,39.15,43l.15,3.11a6,6,0,0,1,3.19,3.26c1.11-1.94.76-4.43,1.73-6.45.82-1.71,2.57-3,2.7-4.92.2-2.78-3.29-5.2,3.2-8.76a1.11,1.11,0,0,1,.47-.14c2.19-.1,4.12,1.31,6.06,2.35A17.13,17.13,0,0,0,67.4,33.33a14.14,14.14,0,0,0,9.26-5.62A16.51,16.51,0,0,0,76,35a31.09,31.09,0,0,0,2.55,6.89A15.72,15.72,0,0,1,80.23,48a.3.3,0,0,0,.56.16c.29-.51.51-1.06.79-1.61a14.92,14.92,0,0,0,.89-2.24,20.25,20.25,0,0,0-.7-13.43,1.59,1.59,0,0,1-.19-.79c.08-.68,1-.95,1.61-.64A3.24,3.24,0,0,1,84.43,31a4.5,4.5,0,0,0-4.33-6Z" fill="#f7de48" stroke="#020202" stroke-miterlimit="10" stroke-width="0.75"/><path id="mouth-4" data-name="mouth" d="M53.69,64.34a4.53,4.53,0,0,1,2.36,1.78,8.5,8.5,0,0,0,4.4,2.94c2.45.63,3.61.84,3.35,2.1s-2.14,1.71-3.35,2.22a8,8,0,0,1-5.85-.95A5,5,0,0,1,52.36,69C51.91,67.17,52.25,63.6,53.69,64.34Z" fill="#fff" stroke="#020202" stroke-miterlimit="10" stroke-width="0.75"/><g id="glasses-2" data-name="glasses"><path d="M83.25,39.37a41,41,0,0,0-7.87-.6c-2.75.2-9.22,2.32-10.28,2.63a9.32,9.32,0,0,1-2.37.35,16.61,16.61,0,0,1-3.19-.66c-.62-.17-5.61-2.06-7.29-2.14a55.61,55.61,0,0,0-7.53-.09c-2.41.27-2.74.49-2.7.7l.38,2.36a4,4,0,0,1,.52.21,1.07,1.07,0,0,1,.42.48c.11.24,2.48,6,2.56,6.22a4.3,4.3,0,0,0,.78,1.36,6.65,6.65,0,0,0,2.06,1.32,12.48,12.48,0,0,0,2.69.61A13.17,13.17,0,0,0,54.61,52a7.9,7.9,0,0,0,3.21-1.46A11.51,11.51,0,0,0,60,47.79c.31-.72,1.29-3,1.5-3.31A1.66,1.66,0,0,1,62.73,44a1.43,1.43,0,0,1,1.31.8c.27.55,1.1,2.69,1.74,3.79a6.37,6.37,0,0,0,4,3.29,10.84,10.84,0,0,0,6-.07,6.27,6.27,0,0,0,2.27-1,6.09,6.09,0,0,0,1.13-1.45c.29-.61,1.21-3.9,1.28-4.23a16.57,16.57,0,0,1,1.67-2.74,3,3,0,0,1,.73-.38l.39-2.36A.47.47,0,0,0,83.25,39.37ZM58.35,47a10,10,0,0,1-1.92,2.91,6.49,6.49,0,0,1-4.28,1,8,8,0,0,1-3.79-.94c-.83-.37-1.18-1.43-1.57-2.44a14,14,0,0,1-.45-4.16.76.76,0,0,1,0-.15,1.47,1.47,0,0,1,.48-1.06c.92-.88,2.4-.86,3.6-.91a20.11,20.11,0,0,1,4.1.22c1.3.2,4.17.51,4.4,2.27A12.91,12.91,0,0,1,58.35,47Zm20,.52c-.39,1-.74,2.07-1.57,2.44a8,8,0,0,1-3.78.94,6.55,6.55,0,0,1-4.28-1A10.1,10.1,0,0,1,66.81,47a8.39,8.39,0,0,1-.58-3.16c.17-1.37,2-2,3.18-2.18a23.25,23.25,0,0,1,4.85-.47c1.27.05,3,0,4.06,1a1.47,1.47,0,0,1,.48,1.06.76.76,0,0,1,0,.15A13.92,13.92,0,0,1,78.36,47.48Z"/></g><g opacity="0.72"><polygon points="24.45 125.66 18.77 125.66 18.77 97.85 24.45 94.85 24.45 125.66" fill="#fff"/></g><g opacity="0.72"><polygon points="38.12 125.25 32.45 125.25 32.45 90.77 38.12 87.77 38.12 125.25" fill="#fff"/></g><g opacity="0.72"><path d="M58.36,102.16v5.67h-50a33.77,33.77,0,0,1,1.85-3.65c.27-.43.64-.84,1-1.32a4.63,4.63,0,0,1,.7-.7Z" fill="#fff"/></g><g opacity="0.72"><path d="M58.32,114.23v5.67H3.63a34.42,34.42,0,0,1,1.06-3.29c.19-.54.4-1.19.63-1.72,0-.08.21-.66.28-.66Z" fill="#fff"/></g><g opacity="0.72"><polygon points="74.07 125.05 79.74 125.05 80.74 83.73 80.37 83.55 77.38 98.02 74.07 95.74 74.07 125.05" fill="#fff"/></g><g opacity="0.72"><polygon points="101.11 125.05 106.79 125.05 106.79 98.59 101.11 95.59 101.11 125.05" fill="#fff"/></g><g opacity="0.72"><polygon points="87.44 125.05 93.11 125.05 92.97 90.98 87.44 87.56 87.44 125.05" fill="#fff"/></g><g opacity="0.72"><path d="M67.21,102v5.68h48.7a14.6,14.6,0,0,0-2.25-3.28c-.41-.54-1.16-1.21-1.64-1.72,0-.06-.68-.68-.7-.68Z" fill="#fff"/></g><g opacity="0.72"><path d="M67.25,114v5.68h54.69a31.77,31.77,0,0,0-1.07-3.29c-.19-.54-.4-1.2-.63-1.73,0-.07-.2-.66-.28-.66Z" fill="#fff"/></g></g></svg>