<svg width="26" height="26" viewBox="0 0 26 26" fill="none" xmlns="http://www.w3.org/2000/svg">
<path fill-rule="evenodd" clip-rule="evenodd" d="M10.5 6.49998C10.5 6.34006 10.5809 6.00041 10.9095 5.69613C11.2269 5.40226 11.8411 5.08331 13 5.08331C14.1588 5.08331 14.773 5.40226 15.0904 5.69613C15.419 6.00041 15.5 6.34006 15.5 6.49998V8.19016H10.5V6.49998ZM8.99997 6.49998C8.99997 5.93768 9.24403 5.19399 9.89041 4.59549C10.548 3.98659 11.5588 3.58331 13 3.58331C14.4411 3.58331 15.4519 3.98659 16.1095 4.59549C16.7559 5.19399 17 5.93768 17 6.49998V8.19016H19.5761C19.9904 8.19016 20.3261 8.52594 20.3261 8.94016V19.1852C20.3261 19.7742 20.0902 20.3379 19.6722 20.7526C19.2544 21.167 18.689 21.3988 18.1007 21.3988H7.77232C7.18404 21.3988 6.61864 21.167 6.20082 20.7526C5.7828 20.3379 5.54684 19.7742 5.54684 19.1852V8.94016C5.54684 8.52594 5.88263 8.19016 6.29684 8.19016H8.99997V6.49998ZM8.99997 11.9166V9.69016H7.04684V19.1852C7.04684 19.3725 7.12179 19.5533 7.25718 19.6876C7.39278 19.8221 7.57796 19.8988 7.77232 19.8988H18.1007C18.295 19.8988 18.4802 19.8221 18.6158 19.6876C18.7512 19.5533 18.8261 19.3725 18.8261 19.1852V9.69016H17V11.9166H15.5V9.69016H10.5V11.9166H8.99997Z" fill="#121212"/>
</svg>
