<svg width="24" height="24" viewBox="0 0 24 24" fill="none" xmlns="http://www.w3.org/2000/svg">
<path fill-rule="evenodd" clip-rule="evenodd" d="M8.32446 4.698C6.52954 4.698 5.07446 6.15307 5.07446 7.948V15.948C5.07446 17.7429 6.52954 19.198 8.32446 19.198H16.3245C18.1194 19.198 19.5745 17.7429 19.5745 15.948V7.948C19.5745 6.15307 18.1194 4.698 16.3245 4.698H8.32446ZM3.57446 7.948C3.57446 5.32465 5.70111 3.198 8.32446 3.198H16.3245C18.9478 3.198 21.0745 5.32465 21.0745 7.948V15.948C21.0745 18.5714 18.9478 20.698 16.3245 20.698H8.32446C5.70111 20.698 3.57446 18.5714 3.57446 15.948V7.948ZM12.3245 9.698C11.0818 9.698 10.0745 10.7054 10.0745 11.948C10.0745 13.1906 11.0818 14.198 12.3245 14.198C13.5671 14.198 14.5745 13.1906 14.5745 11.948C14.5745 10.7054 13.5671 9.698 12.3245 9.698ZM8.57446 11.948C8.57446 9.87693 10.2534 8.198 12.3245 8.198C14.3955 8.198 16.0745 9.87693 16.0745 11.948C16.0745 14.0191 14.3955 15.698 12.3245 15.698C10.2534 15.698 8.57446 14.0191 8.57446 11.948ZM17.5745 7.448C17.5745 7.03378 17.2387 6.698 16.8245 6.698C16.4102 6.698 16.0745 7.03378 16.0745 7.448V7.449C16.0745 7.86321 16.4102 8.199 16.8245 8.199C17.2387 8.199 17.5745 7.86321 17.5745 7.449V7.448Z" fill="#121212"/>
</svg>
