<svg width="155" height="30" viewBox="0 0 155 30" fill="none" xmlns="http://www.w3.org/2000/svg">
  <path fill-rule="evenodd" clip-rule="evenodd"
    d="M13.3895 9.54262L14.0441 8.97236L15.1514 8.00784V1.53479C15.1514 0.687244 14.3624 0 13.3895 0C12.4166 0 11.6276 0.687244 11.6276 1.53479V8.00784L12.7349 8.97236L13.3895 9.54262ZM13.3895 17.4946L12.7349 18.0649L11.6276 19.0294V25.5025C11.6276 26.35 12.4166 27.0373 13.3895 27.0373C14.3624 27.0373 15.1514 26.35 15.1514 25.5025V19.0294L14.0441 18.0649L13.3895 17.4946ZM18.9736 11.6631H25.4273C26.2723 11.6631 26.9574 12.4544 26.9574 13.4302C26.9574 14.4061 26.2723 15.1974 25.4273 15.1974H18.9736L18.0116 14.0868L17.4434 13.4302L18.0116 12.7736L18.9736 11.6631ZM9.51404 13.4303L8.94549 12.7737L7.98385 11.6632H1.53019C0.685185 11.6632 0 12.4545 0 13.4303C0 14.4062 0.685185 15.1975 1.53019 15.1975H7.98385L8.94549 14.0869L9.51404 13.4303ZM10.5074 14.314L12.6851 16.4982L12.1129 17.072L6.15202 23.0508C5.85123 23.3525 5.45737 23.5032 5.06317 23.5032C4.86607 23.5032 4.66931 23.4654 4.48385 23.3899C4.29838 23.3147 4.12489 23.2015 3.97433 23.0508C3.3731 22.4478 3.3731 21.4696 3.97433 20.8666L9.93525 14.8878L10.5074 14.314ZM14.2712 10.5392L16.4489 12.7234L17.021 12.1495L22.9819 6.17074C23.5831 5.56772 23.5831 4.5899 22.9819 3.98653C22.8314 3.83586 22.6579 3.7226 22.4724 3.64744C22.2873 3.57193 22.0902 3.53418 21.8931 3.53418C21.4989 3.53418 21.105 3.68485 20.8042 3.98653L14.8433 9.96531L14.2712 10.5392ZM13.1267 11.0191L15.2668 13.1656L16.78 14.6834L22.6379 20.5589C23.2291 21.1519 23.2291 22.1128 22.6379 22.7054C22.3426 23.0019 21.9553 23.15 21.5679 23.15C21.1808 23.15 20.7934 23.0019 20.4978 22.7054L14.64 16.8299L13.1267 15.3121L10.9867 13.1656L9.47348 11.6478L3.61561 5.7722C3.02445 5.17925 3.02445 4.21831 3.61561 3.6257C3.68926 3.5515 3.76895 3.48674 3.85302 3.43108C4.02082 3.32012 4.20577 3.24591 4.39644 3.20881C4.49194 3.19026 4.58879 3.18115 4.68563 3.18115C5.07268 3.18115 5.46007 3.32922 5.75565 3.6257L11.6135 9.50126L13.1267 11.0191ZM34.6582 1.99707H38.8533L51.7432 17.596V1.99707H55.9383V22.9291H51.7432V22.7135L38.8533 6.53702V22.9291H34.6582V1.99707ZM58.3361 17.9468C58.3361 17.188 58.4993 16.496 58.8258 15.8711C59.1522 15.2461 59.6419 14.7082 60.2947 14.2573C60.9476 13.8064 61.7615 13.4582 62.7364 13.2127C63.7113 12.9672 64.8472 12.8444 66.1441 12.8444C67.1058 12.8444 68.1182 12.9158 69.1813 13.0587C70.2444 13.2015 71.3406 13.4203 72.4699 13.7149C72.4258 13.2149 72.2758 12.7529 72.02 12.3288C71.7641 11.9047 71.409 11.5387 70.9546 11.2307C70.5003 10.9226 69.9533 10.6838 69.3136 10.5142C68.674 10.3446 67.9483 10.2597 67.1367 10.2597C66.6955 10.2597 66.2103 10.2865 65.6809 10.3401C65.1516 10.3937 64.6046 10.474 64.0399 10.5811C63.4753 10.6883 62.9172 10.8222 62.3658 10.9829C61.8144 11.1436 61.3005 11.3356 60.8241 11.5588L59.633 8.30447C60.2241 8.0902 60.8572 7.89378 61.5321 7.71522C62.207 7.53666 62.8974 7.38265 63.6032 7.25319C64.309 7.12373 65.0148 7.02329 65.7206 6.95186C66.4264 6.88044 67.1102 6.84473 67.7719 6.84473C70.6922 6.84473 72.8625 7.59915 74.283 9.10801C75.7034 10.6169 76.4136 12.9292 76.4136 16.0452V22.9287H72.4964V21.4422C72.0905 21.6833 71.6472 21.9109 71.1664 22.1252C70.6855 22.3395 70.1628 22.527 69.5982 22.6877C69.0335 22.8484 68.427 22.9756 67.7785 23.0694C67.13 23.1631 66.4441 23.21 65.7206 23.21C64.5031 23.21 63.4334 23.0761 62.5114 22.8082C61.5894 22.5404 60.8197 22.1698 60.2021 21.6967C59.5845 21.2235 59.1191 20.6677 58.8059 20.0293C58.4927 19.391 58.3361 18.6968 58.3361 17.9468ZM62.4643 17.813C62.4643 18.072 62.5305 18.3197 62.6628 18.5563C62.7952 18.7929 63.0069 19.0027 63.298 19.1857C63.5892 19.3688 63.9619 19.5161 64.4163 19.6277C64.8707 19.7393 65.4199 19.7951 66.0639 19.7951C66.7521 19.7951 67.4182 19.7326 68.0623 19.6076C68.7063 19.4826 69.3062 19.3174 69.8621 19.1121C70.4179 18.9067 70.9208 18.6701 71.3707 18.4023C71.8207 18.1344 72.1956 17.8577 72.4956 17.572V16.8756C71.8957 16.7059 71.3024 16.5631 70.7157 16.447C70.129 16.331 69.5687 16.2395 69.0349 16.1725C68.5012 16.1055 67.9983 16.0587 67.5263 16.0319C67.0543 16.0051 66.6418 15.9917 66.2889 15.9917C65.5566 15.9917 64.9479 16.0408 64.4626 16.139C63.9774 16.2372 63.5848 16.3689 63.2848 16.5341C62.9848 16.6993 62.7731 16.8934 62.6496 17.1166C62.5261 17.3398 62.4643 17.572 62.4643 17.813ZM80.4845 24.9108C80.8903 25.1786 81.3315 25.4152 81.8079 25.6206C82.2843 25.8259 82.7806 25.9956 83.2967 26.1295C83.8128 26.2634 84.34 26.3638 84.8781 26.4308C85.4163 26.4978 85.9501 26.5312 86.4794 26.5312C88.2793 26.5312 89.6666 26.1406 90.6415 25.3594C91.6164 24.5782 92.1039 23.4064 92.1039 21.844V21.3083C91.7598 21.5494 91.3738 21.7703 90.9459 21.9712C90.518 22.1721 90.0592 22.344 89.5696 22.4868C89.0799 22.6297 88.5638 22.739 88.0212 22.8149C87.4786 22.8908 86.9294 22.9288 86.3736 22.9288C85.1825 22.9288 84.1172 22.7524 83.1776 22.3998C82.238 22.0471 81.4439 21.5293 80.7955 20.8463C80.147 20.1633 79.6507 19.3218 79.3067 18.3218C78.9626 17.3219 78.7905 16.1791 78.7905 14.8934V7.12598H82.6945V13.7953C82.6945 15.7059 83.0541 17.1143 83.7731 18.0205C84.4921 18.9267 85.6281 19.3798 87.1808 19.3798C88.2748 19.3798 89.2431 19.1856 90.0857 18.7973C90.9282 18.4089 91.601 17.9111 92.1039 17.304V7.12598H96.0211V21.1208C96.0211 22.6297 95.8093 23.9399 95.3859 25.0514C94.9624 26.163 94.347 27.0848 93.5397 27.8169C92.7325 28.549 91.7421 29.0959 90.5687 29.4574C89.3953 29.819 88.0631 29.9998 86.5721 29.9998C85.1163 29.9998 83.7577 29.8436 82.496 29.5311C81.2344 29.2186 80.0786 28.7945 79.0288 28.2588L80.4845 24.9108ZM99.1456 10.4205H107.152L97.584 22.9288H113.888V19.6343H104.783L114.418 7.12598H99.1456V10.4205ZM116.708 15.8711C116.382 16.496 116.218 17.188 116.218 17.9468C116.218 18.6968 116.375 19.391 116.688 20.0293C117.002 20.6677 117.467 21.2235 118.084 21.6967C118.702 22.1698 119.472 22.5404 120.394 22.8082C121.316 23.0761 122.385 23.21 123.603 23.21C124.326 23.21 125.012 23.1631 125.661 23.0694C126.309 22.9756 126.916 22.8484 127.481 22.6877C128.045 22.527 128.568 22.3395 129.049 22.1252C129.53 21.9109 129.973 21.6833 130.379 21.4422V22.9287H134.296V16.0452C134.296 12.9292 133.586 10.6169 132.165 9.10801C130.745 7.59915 128.575 6.84473 125.654 6.84473C124.993 6.84473 124.309 6.88044 123.603 6.95186C122.897 7.02329 122.191 7.12373 121.486 7.25319C120.78 7.38265 120.089 7.53666 119.414 7.71522C118.74 7.89378 118.107 8.0902 117.515 8.30447L118.706 11.5588C119.183 11.3356 119.697 11.1436 120.248 10.9829C120.8 10.8222 121.358 10.6883 121.922 10.5811C122.487 10.474 123.034 10.3937 123.563 10.3401C124.093 10.2865 124.578 10.2597 125.019 10.2597C125.831 10.2597 126.556 10.3446 127.196 10.5142C127.836 10.6838 128.383 10.9226 128.837 11.2307C129.291 11.5387 129.646 11.9047 129.902 12.3288C130.158 12.7529 130.308 13.2149 130.352 13.7149C129.223 13.4203 128.127 13.2015 127.064 13.0587C126.001 12.9158 124.988 12.8444 124.026 12.8444C122.73 12.8444 121.594 12.9672 120.619 13.2127C119.644 13.4582 118.83 13.8064 118.177 14.2573C117.524 14.7082 117.035 15.2461 116.708 15.8711ZM120.545 18.5563C120.413 18.3197 120.347 18.072 120.347 17.813C120.347 17.572 120.408 17.3398 120.532 17.1166C120.655 16.8934 120.867 16.6993 121.167 16.5341C121.467 16.3689 121.86 16.2372 122.345 16.139C122.83 16.0408 123.439 15.9917 124.171 15.9917C124.524 15.9917 124.937 16.0051 125.409 16.0319C125.881 16.0587 126.384 16.1055 126.917 16.1725C127.451 16.2395 128.011 16.331 128.598 16.447C129.185 16.5631 129.778 16.7059 130.378 16.8756V17.572C130.078 17.8577 129.703 18.1344 129.253 18.4023C128.803 18.6701 128.3 18.9067 127.744 19.1121C127.189 19.3174 126.589 19.4826 125.945 19.6076C125.301 19.7326 124.634 19.7951 123.946 19.7951C123.302 19.7951 122.753 19.7393 122.299 19.6277C121.844 19.5161 121.472 19.3688 121.18 19.1857C120.889 19.0027 120.678 18.7929 120.545 18.5563ZM141.183 1.99707H137.266V22.9291H141.183V19.1658L143.314 17.2374L149.124 22.9291H155L146.318 14.5188L154.484 7.12628H148.489L141.183 13.8358V1.99707Z"
    fill="#121212" />
</svg>